#N canvas 5 81 1440 624 10;
#N canvas 189 240 405 339 scales 0;
#X obj 34 224 tabread;
#X obj 34 69 inlet;
#X msg 49 191 set major;
#X obj 34 278 outlet;
#X obj 52 162 loadbang;
#X connect 0 0 3 0;
#X connect 1 0 0 0;
#X connect 2 0 0 0;
#X connect 4 0 2 0;
#X restore 980 191 pd scales;
#X floatatom 993 146 5 0 0 0 - - -;
#N canvas 917 164 395 305 dividescale 0;
#X obj 140 39 inlet;
#X text 88 11 divide input range into number of notes;
#X text 270 39 range 0 - 100;
#X obj 203 37 inlet;
#X obj 203 162 /;
#X msg 203 136 100;
#X obj 203 111 t b f;
#X floatatom 226 73 5 0 0 0 - - -;
#X obj 187 191 div;
#X obj 187 256 outlet;
#X connect 0 0 8 0;
#X connect 3 0 6 0;
#X connect 4 0 8 1;
#X connect 5 0 4 0;
#X connect 6 0 5 0;
#X connect 6 1 4 1;
#X connect 7 0 6 0;
#X connect 8 0 9 0;
#X restore 980 121 pd dividescale;
#X obj 1409 18 loadbang;
#X obj 1409 85 s nr-notes;
#X obj 1061 93 r nr-notes;
#X obj 980 169 change;
#X obj 996 570 dac~;
#N canvas 0 94 748 351 scales-tables 0;
#N canvas 0 50 450 250 (subpatch) 0;
#X array major 12 float 3;
#A 0 40 42 44 45 47 49 51 52 54 56 57 59;
#X coords 0 127 12 0 200 140 1 0 0;
#X restore 33 38 graph;
#X msg 275 46 \; major 0 40 42 44 45 47 49 51 52 54 56 57 59;
#X restore 1089 31 pd scales-tables;
#X obj 981 214 change;
#X msg 1412 50 12;
#X obj 544 73 route list;
#X obj 543 42 receive fromNetwork;
#X obj 530 206 vsl 30 256 0 100 0 0 empty empty empty 0 -9 0 10 -262144
-1 -1 0 1;
#X obj 849 208 vsl 30 256 0 200 0 0 empty empty empty 0 -9 0 10 -262144
-1 -1 0 1;
#X obj 579 207 hsl 256 30 0 100 0 0 empty empty empty -2 -8 0 10 -262144
-1 -1 0 1;
#X obj 531 181 r y;
#X obj 576 179 r x;
#X obj 851 181 r z;
#X text 541 19 values received from the ESP32;
#X obj 978 84 r y;
#X obj 1002 489 r vol_master;
#X obj 952 530 *~;
#N canvas 189 240 405 339 scales 0;
#X obj 34 224 tabread;
#X obj 34 69 inlet;
#X msg 49 191 set major;
#X obj 34 278 outlet;
#X obj 52 162 loadbang;
#X connect 0 0 3 0;
#X connect 1 0 0 0;
#X connect 2 0 0 0;
#X connect 4 0 2 0;
#X restore 1176 204 pd scales;
#X floatatom 1189 159 5 0 0 0 - - -;
#N canvas 917 164 395 305 dividescale 0;
#X obj 140 39 inlet;
#X text 88 11 divide input range into number of notes;
#X text 270 39 range 0 - 100;
#X obj 203 37 inlet;
#X obj 203 162 /;
#X msg 203 136 100;
#X obj 203 111 t b f;
#X floatatom 226 73 5 0 0 0 - - -;
#X obj 187 191 div;
#X obj 187 256 outlet;
#X connect 0 0 8 0;
#X connect 3 0 6 0;
#X connect 4 0 8 1;
#X connect 5 0 4 0;
#X connect 6 0 5 0;
#X connect 6 1 4 1;
#X connect 7 0 6 0;
#X connect 8 0 9 0;
#X restore 1176 134 pd dividescale;
#X obj 1257 106 r nr-notes;
#X obj 1176 182 change;
#X obj 1174 226 change;
#X obj 1174 97 r x;
#N canvas 189 240 405 339 scales 0;
#X obj 34 224 tabread;
#X obj 34 69 inlet;
#X msg 49 191 set major;
#X obj 34 278 outlet;
#X obj 52 162 loadbang;
#X connect 0 0 3 0;
#X connect 1 0 0 0;
#X connect 2 0 0 0;
#X connect 4 0 2 0;
#X restore 1406 235 pd scales;
#X floatatom 1419 190 5 0 0 0 - - -;
#N canvas 917 164 395 305 dividescale 0;
#X obj 140 39 inlet;
#X text 88 11 divide input range into number of notes;
#X text 270 39 range 0 - 100;
#X obj 203 37 inlet;
#X obj 203 162 /;
#X msg 203 136 100;
#X obj 203 111 t b f;
#X floatatom 226 73 5 0 0 0 - - -;
#X obj 187 191 div;
#X obj 187 256 outlet;
#X connect 0 0 8 0;
#X connect 3 0 6 0;
#X connect 4 0 8 1;
#X connect 5 0 4 0;
#X connect 6 0 5 0;
#X connect 6 1 4 1;
#X connect 7 0 6 0;
#X connect 8 0 9 0;
#X restore 1406 165 pd dividescale;
#X obj 1487 137 r nr-notes;
#X obj 1406 213 change;
#X obj 1407 258 change;
#X obj 1404 128 r z;
#X obj 984 332 instrument1;
#X obj 1040 458 reverb;
#X msg 1041 410 67;
#X msg 1071 410 86;
#X obj 1174 332 instrument4;
#X obj 1409 312 instrument3;
#X obj 982 372 *~ 0.5;
#X obj 1352 374 *~ 0.5;
#X obj 1174 285 + 24;
#X obj 1151 375 *~ 0.5;
#X obj 1409 285 + 36;
#X obj 1050 377 loadbang;
#X obj 1026 528 *~;
#X text 1195 33 <-- this are the notes to play;
#X text 1000 57 three voices \, with three instruments;
#X text 1220 284 add two octaves;
#X text 1459 286 add three octaves;
#X text 1448 49 number of notes to use;
#X text 1082 461 add some reverb;
#X obj 46 33 receive fromGUI;
#X obj 47 64 list trim;
#X obj 51 164 r volume;
#X obj 44 116 s volume;
#X obj 50 203 sel 1 0;
#X msg 79 234 0;
#X msg 45 234 0.9;
#X text 36 8 Messages received from the phone;
#X obj 45 280 s vol_master;
#X obj 175 544 send toGUI, f 33;
#X obj 87 362 r x;
#X obj 120 361 r y;
#X obj 161 361 r z;
#N canvas 0 94 614 457 speedControl 0;
#X obj 43 239 inlet;
#X obj 28 270 f;
#X obj 28 293 outlet;
#X obj 27 127 loadbang;
#X obj 115 241 inlet;
#X obj 100 272 f;
#X obj 100 295 outlet;
#X obj 196 243 inlet;
#X obj 181 274 f;
#X obj 181 297 outlet;
#X obj 27 160 metro 100;
#X text 173 22 Updating your phone display can take a bit of time.
As we expect values from the ESP32 every 3 or 4 ms \, we impose here
a slower rate for the values sent to the display. Audio synthesis is
not affected by this subpatch. It runs at full ESP32 rate.;
#X text 134 206 add one of this for each inout you want to control
;
#X obj 247 243 inlet;
#X obj 232 274 f;
#X obj 232 297 outlet;
#X obj 319 245 inlet;
#X obj 304 276 f;
#X obj 304 299 outlet;
#X obj 400 247 inlet;
#X obj 385 278 f;
#X obj 385 301 outlet;
#X connect 0 0 1 1;
#X connect 1 0 2 0;
#X connect 3 0 10 0;
#X connect 4 0 5 1;
#X connect 5 0 6 0;
#X connect 7 0 8 1;
#X connect 8 0 9 0;
#X connect 10 0 1 0;
#X connect 10 0 5 0;
#X connect 10 0 8 0;
#X connect 10 0 14 0;
#X connect 10 0 17 0;
#X connect 10 0 20 0;
#X connect 13 0 14 1;
#X connect 14 0 15 0;
#X connect 16 0 17 1;
#X connect 17 0 18 0;
#X connect 19 0 20 1;
#X connect 20 0 21 0;
#X restore 137 454 pd speedControl;
#X text 246 444 control the sending rate;
#X msg 146 506 list /z \$1;
#X msg 26 512 list /xy \$1 \$2;
#X obj 25 485 pack f f;
#X text 42 318 Sending values to the phone app;
#X obj 46 92 route /on /presets;
#X obj 126 121 unpack f f f;
#X obj 243 154 s p_value;
#X obj 125 154 s p_column;
#X obj 192 154 s p_row;
#X text 187 71 For example \, /on controls the main volume;
#X text 192 90 we also receive the infomation of presets;
#X obj 535 155 s angles;
#X obj 608 157 s accelero;
#X obj 544 108 route /angles /accelero /analog;
#X obj 690 156 s analog;
#X obj 642 252 r angles;
#X obj 640 291 unpack f f f;
#X floatatom 634 326 5 0 0 0 - - -;
#X floatatom 678 326 5 0 0 0 - - -;
#X floatatom 725 324 5 0 0 0 - - -;
#X obj 634 355 s x;
#X obj 679 353 s y;
#X obj 727 356 s z;
#X obj 632 420 unpack f f f;
#X floatatom 626 455 5 0 0 0 - - -;
#X floatatom 670 455 5 0 0 0 - - -;
#X floatatom 717 453 5 0 0 0 - - -;
#X obj 634 396 r accelero;
#X obj 625 484 s ax;
#X obj 671 482 s ay;
#X obj 719 485 s az;
#X floatatom 617 579 5 0 0 0 - - -;
#X floatatom 661 579 5 0 0 0 - - -;
#X floatatom 708 577 5 0 0 0 - - -;
#X obj 625 520 r analog;
#X obj 623 544 unpack f f f f;
#X floatatom 752 576 5 0 0 0 - - -;
#X obj 83 388 abs;
#X obj 88 424 / 180;
#X obj 127 425 / 180;
#X obj 169 424 / 180;
#X obj 123 390 abs;
#X obj 168 393 abs;
#X connect 0 0 9 0;
#X connect 2 0 1 0;
#X connect 2 0 6 0;
#X connect 3 0 10 0;
#X connect 5 0 2 1;
#X connect 6 0 0 0;
#X connect 9 0 37 0;
#X connect 10 0 4 0;
#X connect 11 0 84 0;
#X connect 12 0 11 0;
#X connect 16 0 13 0;
#X connect 17 0 15 0;
#X connect 18 0 14 0;
#X connect 20 0 2 0;
#X connect 21 0 22 1;
#X connect 21 0 49 1;
#X connect 22 0 7 0;
#X connect 23 0 28 0;
#X connect 25 0 24 0;
#X connect 25 0 27 0;
#X connect 26 0 25 1;
#X connect 27 0 23 0;
#X connect 28 0 45 0;
#X connect 29 0 25 0;
#X connect 30 0 35 0;
#X connect 32 0 31 0;
#X connect 32 0 34 0;
#X connect 33 0 32 1;
#X connect 34 0 30 0;
#X connect 35 0 47 0;
#X connect 36 0 32 0;
#X connect 37 0 43 0;
#X connect 38 0 22 0;
#X connect 38 1 49 0;
#X connect 39 0 38 1;
#X connect 40 0 38 2;
#X connect 41 0 46 0;
#X connect 42 0 44 0;
#X connect 43 0 38 0;
#X connect 44 0 38 0;
#X connect 45 0 41 0;
#X connect 46 0 38 0;
#X connect 47 0 42 0;
#X connect 48 0 39 0;
#X connect 48 0 40 0;
#X connect 49 0 7 1;
#X connect 56 0 57 0;
#X connect 57 0 75 0;
#X connect 58 0 60 0;
#X connect 60 0 62 0;
#X connect 60 1 61 0;
#X connect 61 0 64 0;
#X connect 62 0 64 0;
#X connect 66 0 108 0;
#X connect 67 0 112 0;
#X connect 68 0 113 0;
#X connect 69 0 73 0;
#X connect 69 1 73 1;
#X connect 69 2 71 0;
#X connect 71 0 65 0;
#X connect 72 0 65 0;
#X connect 73 0 72 0;
#X connect 75 0 59 0;
#X connect 75 1 76 0;
#X connect 76 0 78 0;
#X connect 76 1 79 0;
#X connect 76 2 77 0;
#X connect 84 0 82 0;
#X connect 84 1 83 0;
#X connect 84 2 85 0;
#X connect 86 0 87 0;
#X connect 87 0 88 0;
#X connect 87 1 89 0;
#X connect 87 2 90 0;
#X connect 88 0 91 0;
#X connect 89 0 92 0;
#X connect 90 0 93 0;
#X connect 94 0 95 0;
#X connect 94 1 96 0;
#X connect 94 2 97 0;
#X connect 95 0 99 0;
#X connect 96 0 100 0;
#X connect 97 0 101 0;
#X connect 98 0 94 0;
#X connect 105 0 106 0;
#X connect 106 0 102 0;
#X connect 106 1 103 0;
#X connect 106 2 104 0;
#X connect 106 3 107 0;
#X connect 108 0 109 0;
#X connect 109 0 69 0;
#X connect 110 0 69 1;
#X connect 111 0 69 2;
#X connect 112 0 110 0;
#X connect 113 0 111 0;
